<svg xmlns="http://www.w3.org/2000/svg" viewBox="0 0 24 24" width="48" height="48" aria-hidden="true">
  <circle cx="12" cy="12" r="12" fill="#25D366"/>
  <path fill="#fff" d="M17.5 14.4c-.3-.1-1.7-.8-1.9-.9-.3-.1-.5-.1-.7.1-.2.3-.8.9-.9 1.1-.2.2-.3.2-.6.1-.3-.1-1.2-.4-2.2-1.3-.8-.7-1.4-1.6-1.5-1.9-.2-.3 0-.4.1-.6.1-.1.3-.3.4-.5.1-.2.2-.3.3-.5.1-.2 0-.4 0-.5 0-.1-.7-1.7-.9-2.3-.2-.6-.5-.5-.7-.5h-.6c-.2 0-.5.1-.8.4-.3.3-1 1-1 2.5s1 2.9 1.2 3.1c.1.2 2 3.1 4.9 4.3.7.3 1.2.5 1.6.6.7.2 1.3.2 1.8.1.5-.1 1.7-.7 2-1.4.2-.7.2-1.2.2-1.4-.1-.1-.3-.2-.6-.3z"/>
</svg>
